<svg width="280" height="300" viewBox="0 0 280 300" fill="none" xmlns="http://www.w3.org/2000/svg">
<mask id="mask0" mask-type="alpha" maskUnits="userSpaceOnUse" x="24" y="22" width="233" height="278">
<path d="M140.387 22.0253C176.303 22.0253 205.419 50.5884 205.419 85.8228L205.421 92.8475C212.011 93.9327 217.032 99.5556 217.032 106.329V122.278C217.032 129.174 211.829 134.877 205.064 135.814C202.664 158.377 188.276 177.443 168.259 186.771L168.258 207.722H172.903C219.081 207.722 256.516 244.445 256.516 289.747V300H24.2581V289.747C24.2581 244.445 61.6928 207.722 107.871 207.722H112.516L112.516 186.772C92.4987 177.443 78.1098 158.378 75.7092 135.814C68.9454 134.877 63.7419 129.174 63.7419 122.278V106.329C63.7419 99.5552 68.7641 93.9319 75.3549 92.8472L75.3548 85.8228C75.3548 50.5884 104.471 22.0253 140.387 22.0253Z" fill="white"/>
</mask>
<g mask="url(#mask0)">
<path d="M140.387 22.0253C176.303 22.0253 205.419 50.5884 205.419 85.8228L205.421 92.8475C212.011 93.9327 217.032 99.5556 217.032 106.329V122.278C217.032 129.174 211.829 134.877 205.064 135.814C202.664 158.377 188.276 177.443 168.259 186.771L168.258 207.722H172.903C219.081 207.722 256.516 244.445 256.516 289.747V300H24.2581V289.747C24.2581 244.445 61.6928 207.722 107.871 207.722H112.516L112.516 186.772C92.4987 177.443 78.1098 158.378 75.7092 135.814C68.9454 134.877 63.7419 129.174 63.7419 122.278V106.329C63.7419 99.5552 68.7641 93.9319 75.3549 92.8472L75.3548 85.8228C75.3548 50.5884 104.471 22.0253 140.387 22.0253Z" fill="#D0C6AC"/>
<path d="M294.689 22.0253H-12.9032V300.956H294.689V22.0253Z" fill="#FFDBB4"/>
<path fill-rule="evenodd" clip-rule="evenodd" d="M75.3549 129.114C75.3549 164.348 104.471 192.911 140.387 192.911C176.303 192.911 205.419 164.348 205.419 129.114V138.228C205.419 173.462 176.303 202.025 140.387 202.025C104.471 202.025 75.3549 173.462 75.3549 138.228V129.114Z" fill="black" fill-opacity="0.1"/>
</g>
<mask id="mask1" mask-type="alpha" maskUnits="userSpaceOnUse" x="24" y="189" width="233" height="111">
<path d="M168.26 189.575C189.279 191.882 205.419 198.225 205.419 214.645L205.412 214.151C235.442 226.595 256.516 255.756 256.516 289.746V300H24.2581V289.746C24.2581 255.756 45.3326 226.595 75.3623 214.151C75.6807 198.097 91.7077 191.859 112.516 189.574L112.516 211.139C112.516 226.24 124.994 238.481 140.387 238.481C155.78 238.481 168.258 226.24 168.258 211.139L168.26 189.575Z" fill="white"/>
</mask>
<g mask="url(#mask1)">
<path d="M168.26 189.575C189.279 191.882 205.419 198.225 205.419 214.645L205.412 214.151C235.442 226.595 256.516 255.756 256.516 289.746V300H24.2581V289.746C24.2581 255.756 45.3326 226.595 75.3623 214.151C75.6807 198.097 91.7077 191.859 112.516 189.574L112.516 211.139C112.516 226.24 124.994 238.481 140.387 238.481C155.78 238.481 168.258 226.24 168.258 211.139L168.26 189.575Z" fill="#B7C1DB"/>
<path d="M294.827 174.684H-12.9032V300H294.827V174.684Z" fill="#293347"/>
<path fill-rule="evenodd" clip-rule="evenodd" d="M105.548 245.019L105.548 300H97.4193L97.418 240.93C99.9775 242.422 102.699 243.79 105.548 245.019ZM183.357 240.93L183.355 286.899C183.355 289.101 181.535 290.886 179.29 290.886C177.046 290.886 175.226 289.101 175.226 286.899L175.227 245.019C178.076 243.79 180.797 242.422 183.357 240.93Z" fill="#F4F4F4"/>
<path fill-rule="evenodd" clip-rule="evenodd" d="M188.043 189.179C205.523 192.422 217.613 198.884 217.613 211.49C217.613 233.947 179.247 252.152 140.387 252.152C101.528 252.152 63.1613 233.947 63.1613 211.49C63.1613 198.884 75.251 192.422 92.7312 189.179C82.1795 192.994 75.3548 199.41 75.3548 210.088C75.3548 233.319 107.663 252.152 140.387 252.152C173.111 252.152 205.419 233.319 205.419 210.088C205.419 199.633 198.877 193.264 188.698 189.421L188.043 189.179Z" fill="black" fill-opacity="0.16"/>
</g>
<mask id="mask2" mask-type="alpha" maskUnits="userSpaceOnUse" x="118" y="148" width="45" height="23">
<path d="M118.459 150.905C119.688 161.719 129.037 170.127 140.387 170.127C151.773 170.127 161.144 161.667 162.326 150.805C162.421 149.931 161.426 148.481 160.179 148.481C142.882 148.481 129.631 148.481 120.746 148.481C119.492 148.481 118.337 149.824 118.459 150.905Z" fill="white"/>
</mask>
<g mask="url(#mask2)">
<path d="M118.459 150.905C119.688 161.719 129.037 170.127 140.387 170.127C151.773 170.127 161.144 161.667 162.326 150.805C162.421 149.931 161.426 148.481 160.179 148.481C142.882 148.481 129.631 148.481 120.746 148.481C119.492 148.481 118.337 149.824 118.459 150.905Z" fill="black" fill-opacity="0.7"/>
<path fill-rule="evenodd" clip-rule="evenodd" d="M128.774 135.949H153.161C156.368 135.949 158.968 138.5 158.968 141.646V148.481C158.968 151.627 156.368 154.177 153.161 154.177H128.774C125.567 154.177 122.968 151.627 122.968 148.481V141.646C122.968 138.5 125.567 135.949 128.774 135.949Z" fill="white"/>
<path d="M134.581 186.076C141.636 186.076 147.355 180.465 147.355 173.544C147.355 166.623 141.636 161.013 134.581 161.013C127.526 161.013 121.807 166.623 121.807 173.544C121.807 180.465 127.526 186.076 134.581 186.076Z" fill="#FF4F6D"/>
<path d="M146.194 186.076C153.249 186.076 158.968 180.465 158.968 173.544C158.968 166.623 153.249 161.013 146.194 161.013C139.139 161.013 133.419 166.623 133.419 173.544C133.419 180.465 139.139 186.076 146.194 186.076Z" fill="#FF4F6D"/>
</g>
<path fill-rule="evenodd" clip-rule="evenodd" d="M126.452 129.114C126.452 134.147 132.691 138.228 140.387 138.228C148.083 138.228 154.323 134.147 154.323 129.114" fill="black" fill-opacity="0.16"/>
<path fill-rule="evenodd" clip-rule="evenodd" d="M94.1215 109.117C96.2659 104.789 101.094 101.772 106.707 101.772C112.3 101.772 117.114 104.768 119.27 109.071C119.91 110.35 118.999 111.396 118.079 110.621C115.233 108.22 111.191 106.721 106.707 106.721C102.363 106.721 98.4341 108.128 95.6049 110.398C94.5705 111.228 93.4944 110.383 94.1215 109.117Z" fill="black" fill-opacity="0.6"/>
<path fill-rule="evenodd" clip-rule="evenodd" d="M161.476 109.117C163.621 104.789 168.449 101.772 174.062 101.772C179.655 101.772 184.469 104.768 186.624 109.071C187.265 110.35 186.353 111.396 185.434 110.621C182.588 108.22 178.546 106.721 174.062 106.721C169.718 106.721 165.789 108.128 162.96 110.398C161.925 111.228 160.849 110.383 161.476 109.117Z" fill="black" fill-opacity="0.6"/>
<path fill-rule="evenodd" clip-rule="evenodd" d="M106.184 81.4349C99.4405 81.7405 88.5382 86.5476 88.8191 93.219C88.8284 93.4373 89.1553 93.5332 89.315 93.3652C92.5143 89.9939 115.23 86.5871 123.23 88.3924C123.963 88.5579 124.519 87.8493 124.055 87.3373C120.081 82.9533 112.226 81.1553 106.184 81.4349Z" fill="black" fill-opacity="0.6"/>
<path fill-rule="evenodd" clip-rule="evenodd" d="M175.752 81.4349C182.495 81.7405 193.397 86.5476 193.117 93.219C193.107 93.4373 192.78 93.5332 192.621 93.3652C189.421 89.9939 166.706 86.5871 158.705 88.3924C157.973 88.5579 157.417 87.8493 157.88 87.3373C161.855 82.9533 169.71 81.1553 175.752 81.4349Z" fill="black" fill-opacity="0.6"/>
<mask id="mask3" mask-type="alpha" maskUnits="userSpaceOnUse" x="-13" y="-19" width="307" height="319">
<path d="M293.677 -18.9873H-12.9032V300H293.677V-18.9873Z" fill="white"/>
</mask>
<g mask="url(#mask3)">
<mask id="mask4" mask-type="alpha" maskUnits="userSpaceOnUse" x="71" y="0" width="137" height="94">
<path d="M195.013 26.4916C191.808 23.2789 188.087 20.5521 184.468 17.8176C183.669 17.2148 182.857 16.6266 182.077 16.0008C181.899 15.8587 180.081 14.5812 179.864 14.1111C179.34 12.9801 179.643 13.8607 179.716 12.5111C179.807 10.8044 183.354 5.98405 180.707 4.87863C179.543 4.39243 177.465 5.68629 176.348 6.11363C174.163 6.94995 171.952 7.6632 169.693 8.27821C170.775 6.16293 172.838 1.92856 168.96 3.06188C165.939 3.94484 163.124 6.21492 160.088 7.28288C161.092 5.66756 165.11 0.662217 161.48 0.382423C160.35 0.295274 157.063 2.37386 155.847 2.81725C152.205 4.14551 148.484 5.004 144.659 5.68017C131.655 7.97931 116.448 7.32378 104.417 13.1318C95.1413 17.6093 85.9823 24.5568 80.6239 33.4035C75.4594 41.9308 73.5278 51.263 72.4468 61.0344C71.6536 68.2055 71.5892 75.6181 71.9601 82.8152C72.0813 85.1732 72.3516 96.0427 75.8436 92.751C77.5833 91.1108 77.5705 84.4878 78.0087 82.246C78.8807 77.7858 79.7201 73.3056 81.1739 68.9879C83.736 61.3792 86.7583 57.8313 93.1409 52.5909C97.2369 49.2284 100.113 44.6836 104.033 41.2913C105.794 39.7677 104.45 39.9263 107.281 40.1262C109.183 40.2604 111.093 40.3116 112.998 40.3605C117.407 40.4729 121.822 40.4443 126.231 40.4595C135.111 40.4909 143.95 40.614 152.822 40.158C156.764 39.9554 160.718 39.8457 164.65 39.4879C166.846 39.288 170.744 37.907 172.552 38.9623C174.206 39.9279 175.925 43.0805 177.113 44.3717C179.92 47.4231 183.267 49.7535 186.55 52.2556C193.395 57.4727 196.851 59.4684 198.929 67.6214C201 75.7443 200.42 83.2802 202.983 91.2738C203.434 92.6793 204.627 95.1019 206.098 92.9304C206.371 92.5272 206.3 90.3103 206.3 89.0347C206.3 83.8856 207.629 80.0222 207.613 74.8395C207.547 59.0816 207.028 38.5339 195.013 26.4916Z" fill="white"/>
</mask>
<g mask="url(#mask4)">
<path d="M195.013 26.4916C191.808 23.2789 188.087 20.5521 184.468 17.8176C183.669 17.2148 182.857 16.6266 182.077 16.0008C181.899 15.8587 180.081 14.5812 179.864 14.1111C179.34 12.9801 179.643 13.8607 179.716 12.5111C179.807 10.8044 183.354 5.98405 180.707 4.87863C179.543 4.39243 177.465 5.68629 176.348 6.11363C174.163 6.94995 171.952 7.6632 169.693 8.27821C170.775 6.16293 172.838 1.92856 168.96 3.06188C165.939 3.94484 163.124 6.21492 160.088 7.28288C161.092 5.66756 165.11 0.662217 161.48 0.382423C160.35 0.295274 157.063 2.37386 155.847 2.81725C152.205 4.14551 148.484 5.004 144.659 5.68017C131.655 7.97931 116.448 7.32378 104.417 13.1318C95.1413 17.6093 85.9823 24.5568 80.6239 33.4035C75.4594 41.9308 73.5278 51.263 72.4468 61.0344C71.6536 68.2055 71.5892 75.6181 71.9601 82.8152C72.0813 85.1732 72.3516 96.0427 75.8436 92.751C77.5833 91.1108 77.5705 84.4878 78.0087 82.246C78.8807 77.7858 79.7201 73.3056 81.1739 68.9879C83.736 61.3792 86.7583 57.8313 93.1409 52.5909C97.2369 49.2284 100.113 44.6836 104.033 41.2913C105.794 39.7677 104.45 39.9263 107.281 40.1262C109.183 40.2604 111.093 40.3116 112.998 40.3605C117.407 40.4729 121.822 40.4443 126.231 40.4595C135.111 40.4909 143.95 40.614 152.822 40.158C156.764 39.9554 160.718 39.8457 164.65 39.4879C166.846 39.288 170.744 37.907 172.552 38.9623C174.206 39.9279 175.925 43.0805 177.113 44.3717C179.92 47.4231 183.267 49.7535 186.55 52.2556C193.395 57.4727 196.851 59.4684 198.929 67.6214C201 75.7443 200.42 83.2802 202.983 91.2738C203.434 92.6793 204.627 95.1019 206.098 92.9304C206.371 92.5272 206.3 90.3103 206.3 89.0347C206.3 83.8856 207.629 80.0222 207.613 74.8395C207.547 59.0816 207.028 38.5339 195.013 26.4916Z" fill="#1F3140"/>
<path d="M295.493 -18.9873H-13.0322V300.514H295.493V-18.9873Z" fill="#4A312C"/>
</g>
</g>
</svg>
